<?xml version="1.0" standalone="no"?>
<!DOCTYPE svg PUBLIC "-//W3C//DTD SVG 20010904//EN"
 "http://www.w3.org/TR/2001/REC-SVG-20010904/DTD/svg10.dtd">
<svg version="1.0" xmlns="http://www.w3.org/2000/svg"
 width="491.000000pt" height="491.000000pt" viewBox="0 0 491.000000 491.000000"
 preserveAspectRatio="xMidYMid meet">
<metadata>
Created by potrace 1.14, written by Peter Selinger 2001-2017
</metadata>
<g transform="translate(0.000000,491.000000) scale(0.100000,-0.100000)"
fill="#000000" stroke="none">
<path d="M1914 4127 c-159 -142 -307 -222 -462 -251 -114 -20 -141 -13 -218
58 -32 30 -81 67 -109 83 -48 27 -55 28 -190 28 -135 0 -142 -1 -200 -29 -72
-36 -169 -129 -213 -207 -24 -42 -43 -62 -79 -82 -69 -37 -266 -169 -328 -219
-29 -24 -63 -58 -75 -76 l-23 -33 17 -74 c10 -41 26 -86 37 -99 23 -29 173
-104 269 -134 88 -28 212 -50 263 -47 23 1 62 13 87 26 53 28 140 35 180 14
30 -15 70 -73 153 -216 57 -98 81 -123 203 -212 96 -70 275 -230 555 -497 39
-37 53 -61 73 -122 27 -80 33 -149 16 -193 -21 -55 -23 -88 -26 -345 -2 -145
-6 -275 -9 -287 -15 -61 -127 -267 -217 -401 -76 -113 -90 -103 143 -100 l204
3 46 136 c59 175 80 257 86 344 5 80 20 138 61 243 l29 74 20 -26 c22 -27 45
-109 84 -289 29 -137 22 -175 -63 -347 -35 -69 -64 -128 -66 -131 -2 -4 68 -7
155 -7 l158 0 59 122 c50 102 59 129 58 172 -1 56 -27 159 -72 294 -26 74 -30
100 -29 191 0 112 -13 195 -41 246 -13 24 -18 59 -19 127 l-2 94 43 50 c64 73
102 96 153 95 24 -1 113 -25 197 -53 317 -105 406 -117 748 -95 106 6 141 10
238 24 l53 8 20 -40 c32 -62 71 -226 64 -267 -22 -118 -219 -512 -295 -589
-20 -20 -52 -56 -72 -81 -38 -48 -170 -253 -181 -283 -6 -16 7 -17 193 -17
l200 0 0 24 c0 55 153 304 329 534 139 183 145 196 164 351 l12 93 86 -109
c107 -136 107 -133 110 -418 2 -157 1 -161 -26 -215 -34 -69 -85 -140 -148
-207 l-48 -51 188 -1 189 0 48 100 49 101 0 201 c1 111 -3 239 -7 285 l-7 82
36 -20 c47 -26 50 -26 79 13 33 43 38 105 15 194 -36 144 -42 489 -14 838 2
28 7 86 10 130 4 44 13 127 22 185 23 160 26 215 14 252 -16 47 -73 113 -126
144 -31 18 -55 44 -85 96 -115 193 -374 386 -605 449 -62 17 -105 22 -190 21
-60 -1 -119 -3 -130 -6 -11 -2 -60 -7 -110 -11 -49 -4 -99 -9 -109 -11 -10 -2
-58 -6 -105 -10 -47 -4 -89 -8 -92 -10 -4 -2 -62 -7 -130 -10 -116 -6 -141 -3
-399 39 -362 61 -330 57 -530 62 -196 4 -317 -7 -450 -40 -30 -8 -55 -13 -57
-11 -2 1 9 18 23 37 51 68 104 166 143 264 22 54 39 100 37 102 -1 2 -29 -21
-62 -50z m2812 -1312 c-3 -44 -9 -103 -15 -132 -9 -46 -14 -96 -26 -263 -6
-82 -23 -437 -25 -515 l0 -40 -24 58 c-13 32 -28 63 -34 70 -13 16 -29 79 -37
147 -3 30 -8 66 -10 80 -2 14 -7 75 -10 135 -4 61 -8 112 -8 115 -2 6 41 113
58 147 7 13 36 95 66 183 50 151 54 159 62 128 5 -18 7 -69 3 -113z"/>
</g>
</svg>
